<svg xmlns="http://www.w3.org/2000/svg" width="1200" height="800" viewBox="0 0 1200 800">
<rect width="1200" height="800" fill="#08080d"/>
<style>
.t{font-family:monospace;fill:#eee}.h{font-family:monospace;font-weight:bold;fill:#fff}.s{font-family:monospace;font-size:14px;fill:#aaa}.p{fill:#11121a;stroke:#45405c;stroke-width:2}.a{fill:#6d36a8}.r{fill:#9b2635}.g{fill:#3d8c69}.y{fill:#d39a35}.px{shape-rendering:crispEdges}
</style>
<text x="35" y="40" class="h" font-size="26">MUNDO TORAJO — CONCEPT ART / PROTÓTIPO</text>
<text x="35" y="65" class="s">PIXEL HORROR • ESTADO ATUAL: 1 TELA • REFERÊNCIA DE ATMOSFERA: INTO THE PIT</text>
<!-- map panel -->
<rect x="30" y="90" width="540" height="330" class="p"/>
<text x="50" y="120" class="h" font-size="20">TELA ATUAL / MAPA CONCEITUAL</text>
<rect x="65" y="145" width="470" height="220" fill="#171821" stroke="#625b78" stroke-width="3"/>
<!-- room tiles -->
<g class="px" stroke="#292a35" stroke-width="2" fill="#22232d">
<rect x="80" y="160" width="80" height="45"/><rect x="160" y="160" width="80" height="45"/><rect x="240" y="160" width="80" height="45"/><rect x="320" y="160" width="80" height="45"/><rect x="400" y="160" width="80" height="45"/>
<rect x="80" y="205" width="80" height="45"/><rect x="160" y="205" width="80" height="45"/><rect x="240" y="205" width="80" height="45"/><rect x="320" y="205" width="80" height="45"/><rect x="400" y="205" width="80" height="45"/>
<rect x="80" y="250" width="80" height="45"/><rect x="160" y="250" width="80" height="45"/><rect x="240" y="250" width="80" height="45"/><rect x="320" y="250" width="80" height="45"/><rect x="400" y="250" width="80" height="45"/>
<rect x="80" y="295" width="80" height="45"/><rect x="160" y="295" width="80" height="45"/><rect x="240" y="295" width="80" height="45"/><rect x="320" y="295" width="80" height="45"/><rect x="400" y="295" width="80" height="45"/>
</g>
<!-- furniture -->
<rect x="105" y="180" width="65" height="35" fill="#563f2d"/><rect x="110" y="172" width="55" height="8" fill="#7b5a3d"/>
<rect x="365" y="175" width="75" height="50" fill="#2b3943"/><rect x="375" y="184" width="55" height="25" fill="#171b20"/><circle cx="402" cy="197" r="6" fill="#6d36a8"/>
<rect x="430" y="270" width="30" height="55" fill="#4a2d30"/><circle cx="450" cy="297" r="5" fill="#9b2635"/>
<rect x="190" y="275" width="80" height="35" fill="#4b392c"/><rect x="205" y="260" width="50" height="15" fill="#73553b"/>
<!-- player --> <rect x="275" y="300" width="18" height="25" fill="#533078"/><rect x="277" y="287" width="14" height="14" fill="#9a6b4c"/><rect x="270" y="324" width="10" height="6" fill="#a22b39"/><rect x="290" y="324" width="10" height="6" fill="#a22b39"/>
<text x="78" y="390" class="s">Ponto de início • exploração • objetos • porta • terminal • saída</text>
<!-- character panel -->
<rect x="590" y="90" width="580" height="220" class="p"/>
<text x="610" y="120" class="h" font-size="20">PERSONAGEM — PROTÓTIPO</text>
<!-- sprite views -->
<g class="px">
<rect x="650" y="160" width="42" height="55" fill="#5a3378"/><rect x="657" y="143" width="28" height="24" fill="#925f43"/><rect x="650" y="215" width="18" height="8" fill="#9b2635"/><rect x="680" y="215" width="18" height="8" fill="#9b2635"/>
<rect x="735" y="160" width="42" height="55" fill="#5a3378"/><rect x="742" y="143" width="28" height="24" fill="#925f43"/><rect x="735" y="215" width="18" height="8" fill="#9b2635"/><rect x="765" y="215" width="18" height="8" fill="#9b2635"/>
<rect x="820" y="160" width="42" height="55" fill="#5a3378"/><rect x="827" y="143" width="28" height="24" fill="#925f43"/><rect x="820" y="215" width="18" height="8" fill="#9b2635"/><rect x="850" y="215" width="18" height="8" fill="#9b2635"/>
</g>
<text x="635" y="255" class="s">frente</text><text x="735" y="255" class="s">lado</text><text x="820" y="255" class="s">costas</text>
<text x="930" y="160" class="t" font-size="16">Direção:</text><text x="930" y="185" class="s">reservado / observador</text><text x="930" y="215" class="t" font-size="16">Visual:</text><text x="930" y="240" class="s">moletom roxo</text><text x="930" y="265" class="s">calça escura</text>
<!-- entities -->
<rect x="590" y="330" width="580" height="185" class="p"/>
<text x="610" y="360" class="h" font-size="20">ENTIDADES / HORROR VISUAL</text>
<g class="px">
<rect x="630" y="390" width="55" height="70" fill="#261a34"/><rect x="642" y="405" width="31" height="10" fill="#8c2bb1"/><rect x="640" y="425" width="8" height="20" fill="#8c2bb1"/><rect x="667" y="425" width="8" height="20" fill="#8c2bb1"/>
<rect x="760" y="390" width="55" height="70" fill="#2c3037"/><rect x="773" y="405" width="29" height="18" fill="#14161b"/><circle cx="782" cy="414" r="3" fill="#9b2635"/><circle cx="793" cy="414" r="3" fill="#9b2635"/>
<rect x="890" y="390" width="55" height="70" fill="#3a2631"/><circle cx="918" cy="410" r="20" fill="#4a3436"/><rect x="900" y="430" width="36" height="25" fill="#4a3436"/>
<rect x="1020" y="390" width="55" height="70" fill="#292b31"/><rect x="1010" y="410" width="75" height="12" fill="#9b2635" opacity=".45"/>
</g>
<text x="635" y="485" class="s">fragmento</text><text x="760" y="485" class="s">observador</text><text x="890" y="485" class="s">ameaça</text><text x="1020" y="485" class="s">anomalia</text>
<!-- gameplay panel -->
<rect x="30" y="445" width="540" height="315" class="p"/>
<text x="50" y="475" class="h" font-size="20">GAMEPLAY — PRIMEIRA TELA</text>
<rect x="55" y="495" width="490" height="190" fill="#11131b" stroke="#4d465d" stroke-width="3"/>
<!-- vignette-ish room --> <circle cx="300" cy="590" r="90" fill="#3a2d22" opacity=".35"/><rect x="80" y="520" width="80" height="35" fill="#3d3028"/><rect x="430" y="520" width="65" height="70" fill="#302833"/><rect x="225" y="625" width="70" height="25" fill="#4d3b2b"/>
<rect x="295" y="600" width="18" height="30" fill="#5a3378"/><rect x="298" y="585" width="12" height="16" fill="#925f43"/>
<text x="75" y="715" class="s">Objetivo: explorar o ambiente e descobrir o que está acontecendo.</text>
<text x="75" y="740" class="s">Mecânicas iniciais: movimento • interação • diálogo • evento • save.</text>
<!-- visual direction -->
<rect x="590" y="535" width="580" height="225" class="p"/>
<text x="610" y="565" class="h" font-size="20">DIREÇÃO VISUAL</text>
<rect x="615" y="585" width="150" height="95" fill="#242334"/><rect x="785" y="585" width="150" height="95" fill="#181e2a"/><rect x="955" y="585" width="150" height="95" fill="#2a1720"/>
<circle cx="690" cy="632" r="28" fill="#76502f" opacity=".55"/><circle cx="860" cy="632" r="28" fill="#31527a" opacity=".5"/><circle cx="1030" cy="632" r="28" fill="#8d2634" opacity=".45"/>
<text x="615" y="705" class="s">pixel art • sombras • iluminação limitada • glitch</text>
<text x="615" y="730" class="s">terror psicológico • identidade própria • sem copiar assets</text>
</svg>